<svg width="500px" height="286px" viewBox="0 0 500 286" version="1.1" xmlns="http://www.w3.org/2000/svg" xmlns:xlink="http://www.w3.org/1999/xlink">
    <g id="Page-1" stroke="none" stroke-width="1" fill="none" fill-rule="evenodd">
        <path d="M361.60062,62.7972101 C361.60062,40.3078242 311.946675,19.39938 250.0062,19.39938 C188.05754,19.39938 138.411779,40.3058978 138.411779,62.7972101 C138.411779,85.3041716 188.037515,106.19504 250.0062,106.19504 C311.966702,106.19504 361.60062,85.3022458 361.60062,62.7972101 Z M373.987601,63.6294074 L373.987601,223.989151 C373.987601,256.277532 318.142967,279.786361 249.9938,279.786361 C181.844633,279.786361 126,256.277532 126,223.989151 L126,62.7972101 C126,62.6462291 126.005397,62.4965087 126.016009,62.3482312 C126.53147,30.307679 182.194036,7 250.0062,7 C318.126658,7 374,30.5273281 374,62.7972101 C374,63.0752633 373.995858,63.3526655 373.987601,63.6294074 Z M361.588221,87.7470781 C341.431893,106.499777 298.879851,118.59442 250.0062,118.59442 C201.10783,118.59442 158.544258,106.491264 138.399369,87.7260027 L138.39938,112.394737 C138.399411,134.901705 188.025135,155.79256 249.9938,155.79256 C311.962466,155.79256 361.588189,134.901705 361.588221,112.394751 L361.588221,87.7470781 Z M361.588232,137.33507 C341.43828,156.093749 298.88214,168.19194 249.9938,168.19194 C201.10546,168.19194 158.549321,156.093749 138.399369,137.33507 L138.39938,168.191947 C138.399411,190.698915 188.025135,211.589771 249.9938,211.589771 C311.962466,211.589771 361.588189,190.698915 361.588221,168.191962 L361.588221,137.33508 Z M361.588232,193.13228 C341.43828,211.890959 298.88214,223.989151 249.9938,223.989151 C201.10546,223.989151 158.549321,211.890959 138.399369,193.13228 L138.39938,223.989151 C138.39938,246.496112 188.025115,267.386981 249.9938,267.386981 C311.962485,267.386981 361.588221,246.496112 361.588221,223.989151 L361.588221,193.13229 Z" id="db" fill="#000000" fill-rule="nonzero"></path>
    </g>
</svg>
